<?xml version="1.0" encoding="UTF-8"?>
<!--Generator: Apple Native CoreSVG 341-->
<!DOCTYPE svg
PUBLIC "-//W3C//DTD SVG 1.1//EN"
       "http://www.w3.org/Graphics/SVG/1.1/DTD/svg11.dtd">
<svg version="1.1" xmlns="http://www.w3.org/2000/svg" xmlns:xlink="http://www.w3.org/1999/xlink" viewBox="0 0 606.25 593.75">
 <g>
  <rect height="593.75" opacity="0" width="606.25" x="0" y="0"/>
  <path d="M606.25 215.25C606.25 208.5 603.75 202.25 598.25 197L406.75 8C402 3.25 395.25 0.5 389.25 0.5C374.5 0.5 365 10.5 365 24.5C365 31.5 367.25 37 371.5 41.25L470.25 138.25L558 215.25L470.25 292.25L371.5 389.25C367.25 393.5 365 399 365 406C365 420 374.5 430 389.25 430C395.25 430 402 427.25 406.75 422.5L598.25 233.5C603.75 228.25 606.25 222 606.25 215.25ZM326.5 569.5C326.5 556 316.75 545.25 301.75 545.25L218.5 545.25C109.25 545.25 48.5 480.25 48.5 390.75C48.5 301.25 109.25 239.5 218.5 239.5L458.75 239.5L559.75 235.75C571 235.25 580 226.5 580 215.25C580 204 571 195.25 559.75 194.75L458.75 191L222.25 191C82 191 0 273.25 0 393.25C0 513.5 80.25 593.75 218 593.75L301.75 593.75C316.5 593.75 326.5 582.75 326.5 569.5Z" fill="white" fill-opacity="0.85"/>
 </g>
</svg>
