<?xml version="1.0" encoding="UTF-8"?>
<!--Generator: Apple Native CoreSVG 341-->
<!DOCTYPE svg
PUBLIC "-//W3C//DTD SVG 1.1//EN"
       "http://www.w3.org/Graphics/SVG/1.1/DTD/svg11.dtd">
<svg version="1.1" xmlns="http://www.w3.org/2000/svg" xmlns:xlink="http://www.w3.org/1999/xlink" viewBox="0 0 606.25 593.75">
 <g>
  <rect height="593.75" opacity="0" width="606.25" x="0" y="0"/>
  <path d="M0 215.25C0 222 2.5 228.25 8 233.5L199.5 422.5C204.25 427.25 211.25 430 217.25 430C231.75 430 241.25 420 241.25 406C241.25 399 239 393.5 234.75 389.25L136 292.25L48.25 215.25L136 138.25L234.75 41.25C239 37 241.25 31.5 241.25 24.5C241.25 10.5 231.75 0.5 217.25 0.5C211.25 0.5 204.25 3.25 199.5 8L8 197C2.5 202.25 0 208.5 0 215.25ZM279.75 569.5C279.75 582.75 289.75 593.75 304.75 593.75L388.25 593.75C526.25 593.75 606.25 513.5 606.25 393.25C606.25 273.25 524.5 191 384.25 191L147.5 191L46.75 194.75C35.25 195.25 26.25 204 26.25 215.25C26.25 226.5 35.25 235.25 46.75 235.75L147.5 239.5L387.75 239.5C497 239.5 557.75 301.25 557.75 390.75C557.75 480.25 497 545.25 387.75 545.25L304.5 545.25C289.5 545.25 279.75 556 279.75 569.5Z" fill="white" fill-opacity="0.85"/>
 </g>
</svg>
