<?xml version="1.0" encoding="UTF-8"?>
<!--Generator: Apple Native CoreSVG 341-->
<!DOCTYPE svg
PUBLIC "-//W3C//DTD SVG 1.1//EN"
       "http://www.w3.org/Graphics/SVG/1.1/DTD/svg11.dtd">
<svg version="1.1" xmlns="http://www.w3.org/2000/svg" xmlns:xlink="http://www.w3.org/1999/xlink" viewBox="0 0 389.75 731.25">
 <g>
  <rect height="731.25" opacity="0" width="389.75" x="0" y="0"/>
  <path d="M35.25 644.25L195.5 644.25C301.75 644.25 389.75 597 389.75 490.25C389.75 413 334 359.5 254 350.75L254 347C316.5 336.25 360.25 282.75 360.25 220.5C360.25 131.5 286.5 82.25 194 82.25L35.25 82.25C14 82.25 0 96.25 0 117.25L0 609C0 629 12.75 644.25 35.25 644.25ZM54.25 331L54.25 129.5L182 129.5C251.25 129.5 305.75 159.75 305.75 226C305.75 301 242 331 167 331ZM54.25 596.75L54.25 378L179.75 378C262.25 378 334.75 406 334.75 487.75C334.75 566.75 268.25 596.75 187.25 596.75ZM81 108.75L118 108.75L118 18C118 7.75 110.25 0 99.5 0C88.75 0 81 7.75 81 18ZM180.5 108.75L217 108.75L217 18C217 7.75 209.5 0 199 0C188.25 0 180.5 7.75 180.5 18ZM81 615.25L81 712.25C81 723 88.75 730.75 99.5 730.75C110.25 730.75 118 723 118 712.25L118 615.25ZM180.5 615.25L180.5 712.25C180.5 723 188.25 730.75 199 730.75C209.5 730.75 217 723 217 712.25L217 615.25Z" fill="white" fill-opacity="0.85"/>
 </g>
</svg>
