<?xml version="1.0" encoding="UTF-8"?>
<!--Generator: Apple Native CoreSVG 341-->
<!DOCTYPE svg
PUBLIC "-//W3C//DTD SVG 1.1//EN"
       "http://www.w3.org/Graphics/SVG/1.1/DTD/svg11.dtd">
<svg version="1.1" xmlns="http://www.w3.org/2000/svg" xmlns:xlink="http://www.w3.org/1999/xlink" viewBox="0 0 754.75 674.75">
 <g>
  <rect height="674.75" opacity="0" width="754.75" x="0" y="0"/>
  <path d="M0 66C0 77.25 9 86.75 20.25 86.75L133.25 86.75L186.25 449.75C192.5 492.5 215.25 519 258.75 519L638.75 519C649.25 519 658.75 510 658.75 498.25C658.75 486.25 649.25 477.5 638.75 477.5L264.25 477.5C244.75 477.5 232.5 464.5 229.5 443.75L223.5 404.75L637.25 404.75C682.25 404.75 704.25 377.75 710.75 333.75L737.25 160C737.75 156.25 738.5 151 738.5 148.5C738.5 134 728 124.5 711.5 124.5L182.25 124.5L175.25 77.25C172.25 56 164.5 45.25 136.25 45.25L20.25 45.25C9 45.25 0 54.75 0 66ZM238 623.75C238 652.25 260.75 674.75 289.25 674.75C317.75 674.75 340.25 652.25 340.25 623.75C340.25 595.25 317.75 572.75 289.25 572.75C260.75 572.75 238 595.25 238 623.75ZM536 623.75C536 652.25 559 674.75 587.5 674.75C616 674.75 638.75 652.25 638.75 623.75C638.75 595.25 616 572.75 587.5 572.75C559 572.75 536 595.25 536 623.75Z" fill="#FF8D28"/>
 </g>
</svg>
