<?xml version="1.0" encoding="UTF-8"?>
<!--Generator: Apple Native CoreSVG 341-->
<!DOCTYPE svg
PUBLIC "-//W3C//DTD SVG 1.1//EN"
       "http://www.w3.org/Graphics/SVG/1.1/DTD/svg11.dtd">
<svg version="1.1" xmlns="http://www.w3.org/2000/svg" xmlns:xlink="http://www.w3.org/1999/xlink" viewBox="0 0 824.769 718.63">
 <g>
  <rect height="718.63" opacity="0" width="824.769" x="0" y="0"/>
  <path d="M564.01 634.94C564.01 646.94 553.76 656.94 541.76 656.94L384.249 656.94L428.463 612.69L541.76 612.69C553.76 612.69 564.01 622.69 564.01 634.94Z" fill="white" fill-opacity="0.85"/>
  <path d="M784.51 634.94C784.51 646.94 774.51 656.94 762.51 656.94L629.76 656.94C617.76 656.94 607.51 646.94 607.51 634.94C607.51 622.69 617.76 612.69 629.76 612.69L762.51 612.69C774.51 612.69 784.51 622.69 784.51 634.94Z" fill="white" fill-opacity="0.85"/>
  <path d="M74.5097 511.69L201.76 638.69C247.01 683.69 299.51 685.44 342.26 642.44L653.26 331.19C680.51 304.44 680.26 265.44 652.51 237.94L475.26 61.1899C447.76 33.4399 409.26 32.9399 382.01 60.1899L71.0097 371.19C28.2597 414.19 29.7597 466.69 74.5097 511.69ZM105.76 480.44C81.0097 455.19 79.7597 425.19 103.76 400.94L411.76 92.9399C421.51 83.1899 435.01 83.1899 444.26 92.6899L621.01 269.19C630.26 278.69 630.01 291.94 620.76 301.44L312.26 609.69C288.51 633.69 258.26 632.69 233.26 607.44ZM120.51 353.19L360.51 593.44L388.26 565.44L148.76 325.94Z" fill="white" fill-opacity="0.85"/>
 </g>
</svg>
