<?xml version="1.0" encoding="UTF-8"?>
<!--Generator: Apple Native CoreSVG 341-->
<!DOCTYPE svg
PUBLIC "-//W3C//DTD SVG 1.1//EN"
       "http://www.w3.org/Graphics/SVG/1.1/DTD/svg11.dtd">
<svg version="1.1" xmlns="http://www.w3.org/2000/svg" xmlns:xlink="http://www.w3.org/1999/xlink" viewBox="0 0 866.25 546.25">
 <g>
  <rect height="546.25" opacity="0" width="866.25" x="0" y="0"/>
  <path d="M433.25 545.75C688 545.75 866.25 337.5 866.25 273C866.25 208 687.25 0 433.25 0C181.5 0 0 208 0 273C0 337.5 181 545.75 433.25 545.75ZM433.25 452.5C334.25 452.5 253.75 372 253.75 273C253.75 173.75 334.25 93.25 433.25 93.25C532.25 93.25 612.75 173.75 612.75 273C612.75 372 532.25 452.5 433.25 452.5ZM433.25 336C468.25 336 496.5 308 496.5 273C496.5 238 468.25 209.75 433.25 209.75C398.25 209.75 370 238 370 273C370 308 398.25 336 433.25 336Z" fill="white" fill-opacity="0.85"/>
 </g>
</svg>
