<?xml version="1.0" encoding="UTF-8"?>
<!--Generator: Apple Native CoreSVG 341-->
<!DOCTYPE svg
PUBLIC "-//W3C//DTD SVG 1.1//EN"
       "http://www.w3.org/Graphics/SVG/1.1/DTD/svg11.dtd">
<svg version="1.1" xmlns="http://www.w3.org/2000/svg" xmlns:xlink="http://www.w3.org/1999/xlink" viewBox="0 0 924.25 577.75">
 <g>
  <rect height="577.75" opacity="0" width="924.25" x="0" y="0"/>
  <path d="M196.25 224C196.25 210 205 201 220 201L285 201L285 136.25C285 121.75 293.5 112.75 307.75 112.75C321.5 112.75 330 121.75 330 136.25L330 201L392.5 201C408.25 201 417.75 210 417.75 224C417.75 238.75 408.25 247.75 392.5 247.75L330 247.75L330 312.75C330 327.25 321.5 336.25 307.75 336.25C293.5 336.25 285 327.25 285 312.75L285 247.75L220 247.75C205 247.75 196.25 238.75 196.25 224ZM667 219C641.75 219 620.75 198.5 620.75 172.75C620.75 147 641.75 126.5 667 126.5C692.75 126.5 713.5 147 713.5 172.75C713.5 198.5 692.75 219 667 219ZM567.75 317.5C542.25 317.5 521.5 297 521.5 271.25C521.5 245.75 542.25 225 567.75 225C593.5 225 614.25 245.75 614.25 271.25C614.25 297 593.5 317.5 567.75 317.5ZM119.25 577.75C160.75 577.75 191.5 562 218 529.25L277.5 457.25C286 447 295.5 442.25 305.75 442.25L618.5 442.25C628.75 442.25 638.25 447 646.75 457.25L706 529.25C732.75 562 763.5 577.75 805 577.75C876.5 577.75 924.25 530 924.25 456.75C924.25 425.25 916.75 388.75 904.25 346.75C884.5 280.75 850 191 816.75 120.75C789.5 63.75 775.75 38.75 709.5 23.75C647.75 9.5 563.25 0.5 462 0.5C361 0.5 276.5 9.5 214.75 23.75C148.5 38.75 134.75 63.75 107.5 120.75C74.25 191 39.75 280.75 20 346.75C7.5 388.75 0 425.25 0 456.75C0 530 47.75 577.75 119.25 577.75Z" fill="#FF8D28"/>
 </g>
</svg>
