<?xml version="1.0" encoding="UTF-8"?>
<!--Generator: Apple Native CoreSVG 341-->
<!DOCTYPE svg
PUBLIC "-//W3C//DTD SVG 1.1//EN"
       "http://www.w3.org/Graphics/SVG/1.1/DTD/svg11.dtd">
<svg version="1.1" xmlns="http://www.w3.org/2000/svg" xmlns:xlink="http://www.w3.org/1999/xlink" viewBox="0 0 619.25 612.25">
 <g>
  <rect height="612.25" opacity="0" width="619.25" x="0" y="0"/>
  <path d="M193 609.25C205.75 609.25 213.75 601 213.75 587.25L213.75 22C213.75 8.25 205.75 0 193 0C179.75 0 172 8.25 172 22L172 587.25C172 601 179.75 609.25 193 609.25ZM423.75 609.25C436.25 609.25 444.5 601 444.5 587.25L444.5 22C444.5 8.25 436.25 0 423.75 0C410.5 0 402.75 8.25 402.75 22L402.75 587.25C402.75 601 410.5 609.25 423.75 609.25ZM22 439L597.25 439C610.75 439 619.25 431 619.25 418C619.25 405 610.75 397.25 597.25 397.25L22 397.25C8.25 397.25 0 405 0 418C0 431 8.25 439 22 439ZM22 213L597.25 213C610.75 213 619.25 205 619.25 192C619.25 179 610.75 171.25 597.25 171.25L22 171.25C8.25 171.25 0 179 0 192C0 205 8.25 213 22 213Z" fill="white" fill-opacity="0.85"/>
 </g>
</svg>
