<?xml version="1.0" encoding="UTF-8"?>
<!--Generator: Apple Native CoreSVG 341-->
<!DOCTYPE svg
PUBLIC "-//W3C//DTD SVG 1.1//EN"
       "http://www.w3.org/Graphics/SVG/1.1/DTD/svg11.dtd">
<svg version="1.1" xmlns="http://www.w3.org/2000/svg" xmlns:xlink="http://www.w3.org/1999/xlink" viewBox="0 0 777.497 700.422">
 <g>
  <rect height="700.422" opacity="0" width="777.497" x="0" y="0"/>
  <path d="M202.373 146.836L205.327 154.917C113.658 218.579 76.6922 309.349 74.8734 409.836C74.6234 419.836 67.3734 427.586 57.6234 427.836C48.1234 428.086 39.6234 419.086 39.6234 409.086C39.6234 292.942 88.4644 185.234 195.825 117.59C196.599 127.144 198.78 136.953 202.373 146.836Z" fill="white" fill-opacity="0.85"/>
  <path d="M591.123 644.586C714.623 599.586 770.373 487.086 719.123 346.086L695.873 282.836C670.623 213.086 624.373 184.586 569.123 204.086C554.623 184.586 531.623 177.586 506.623 186.836C497.373 190.086 489.123 195.086 481.373 201.336C465.623 180.586 440.873 172.836 414.873 182.336C407.623 184.836 400.373 189.086 393.623 194.086L355.873 90.8362C342.623 54.3362 309.623 39.3362 276.373 51.5862C242.373 63.8362 226.623 96.5862 240.123 133.086L334.623 393.336C335.373 394.836 334.873 396.336 333.373 396.836C332.123 397.336 331.123 396.836 329.873 395.586L284.623 345.836C266.373 326.086 244.623 320.336 223.873 327.586C195.623 337.836 177.373 365.336 189.123 397.086C192.123 405.586 198.123 416.086 204.873 424.586L314.873 557.836C393.373 652.836 487.123 682.586 591.123 644.586ZM579.373 608.336C494.373 639.336 414.373 621.086 342.873 534.836L232.873 401.836C229.623 397.836 227.123 394.086 225.123 388.336C220.873 377.086 226.123 364.086 239.373 359.336C249.873 355.586 259.123 359.586 268.123 369.336L342.373 447.336C353.623 459.086 363.873 460.586 374.123 456.836C386.123 452.586 391.373 440.086 386.623 427.086L274.123 118.086C268.873 103.586 274.623 90.3362 288.623 85.0862C302.373 80.0862 314.873 86.8362 320.123 101.336L400.123 320.836C403.623 330.336 413.873 335.086 423.123 331.586C432.623 328.086 437.123 318.086 433.623 308.586L404.623 229.086C409.623 224.336 416.623 219.836 422.873 217.586C439.373 211.586 453.123 218.586 459.373 236.336L483.873 303.336C487.623 313.836 498.123 317.336 507.123 314.086C515.623 311.086 521.123 301.586 517.373 291.086L496.373 233.586C501.373 228.836 508.373 224.336 514.623 222.086C531.123 216.086 544.873 223.086 551.123 240.836L567.623 286.086C571.373 296.586 581.873 300.086 590.873 296.836C599.373 293.586 605.123 284.336 601.123 273.836L588.123 237.586C617.623 226.836 644.373 249.336 662.873 300.086L682.873 355.086C727.623 478.086 684.623 570.086 579.373 608.336Z" fill="white" fill-opacity="0.85"/>
 </g>
</svg>
