<?xml version="1.0" encoding="UTF-8"?>
<!--Generator: Apple Native CoreSVG 341-->
<!DOCTYPE svg
PUBLIC "-//W3C//DTD SVG 1.1//EN"
       "http://www.w3.org/Graphics/SVG/1.1/DTD/svg11.dtd">
<svg version="1.1" xmlns="http://www.w3.org/2000/svg" xmlns:xlink="http://www.w3.org/1999/xlink" viewBox="0 0 651.25 651.75">
 <g>
  <rect height="651.75" opacity="0" width="651.25" x="0" y="0"/>
  <path d="M651.25 325.75C651.25 505 505 651.25 325.5 651.25C146.25 651.25 0 505 0 325.75C0 146.25 146.25 0 325.5 0C505 0 651.25 146.25 651.25 325.75ZM307 179L253 342.5L249.25 342.5C235.75 343.25 224.5 353.75 221.5 367.5L182.75 547.5C177 574 213.25 579.5 218 556.25L256.25 378.75L395.25 378.75L433.75 556.25C438.5 579.5 474.5 574 469 547.5L430 367.75C427.25 353.75 415.75 343.25 402.25 342.5L398.25 342.5L344.5 179C338.25 160.5 313.25 160.25 307 179Z" fill="#FF8D28"/>
 </g>
</svg>
