<?xml version="1.0" encoding="UTF-8"?>
<!--Generator: Apple Native CoreSVG 341-->
<!DOCTYPE svg
PUBLIC "-//W3C//DTD SVG 1.1//EN"
       "http://www.w3.org/Graphics/SVG/1.1/DTD/svg11.dtd">
<svg version="1.1" xmlns="http://www.w3.org/2000/svg" xmlns:xlink="http://www.w3.org/1999/xlink" viewBox="0 0 651.25 651.75">
 <g>
  <rect height="651.75" opacity="0" width="651.25" x="0" y="0"/>
  <path d="M651.25 325.75C651.25 505.5 505.25 651.25 325.5 651.25C145.75 651.25 0 505.5 0 325.75C0 146 145.75 0 325.5 0C505.25 0 651.25 146 651.25 325.75ZM46.5 325.75C46.5 426.295 99.5044 514.306 179.312 563.139L176 578.5C173.75 588.25 180.5 597.75 190 599.75C200 601.5 209.5 595.5 211.5 586L212.622 580.822C247.053 596.266 285.274 604.75 325.5 604.75C365.905 604.75 404.287 596.19 438.831 580.604L440 586C441.75 594.5 449.5 600.25 458.5 600C467 599.75 478 589.75 475.75 578.5L472.331 562.749C551.779 513.834 604.5 426.026 604.5 325.75C604.5 171.5 479.75 46.75 325.5 46.75C171.25 46.75 46.5 171.5 46.5 325.75Z" fill="#000000"/>
  <path d="M307 179L247.5 359.25L404 359.25L344.5 179C338.25 160.5 313.25 160.5 307 179ZM458.5 600C467 599.75 478 589.75 475.75 578.5L430 367.75C427 353.25 415 342.5 401 342.5L250.5 342.5C236.5 342.5 224.75 353.25 221.5 367.5L176 578.5C173.75 588.25 180.5 597.75 190 599.75C200 601.5 209.5 595.5 211.5 586L257 376L252.5 378.75L399 378.75L394.5 376L440 586C441.75 594.5 449.5 600.25 458.5 600Z" fill="#000000"/>
 </g>
</svg>
