<?xml version="1.0" encoding="UTF-8"?>
<!--Generator: Apple Native CoreSVG 341-->
<!DOCTYPE svg
PUBLIC "-//W3C//DTD SVG 1.1//EN"
       "http://www.w3.org/Graphics/SVG/1.1/DTD/svg11.dtd">
<svg version="1.1" xmlns="http://www.w3.org/2000/svg" xmlns:xlink="http://www.w3.org/1999/xlink" viewBox="0 0 586.5 586.25">
 <g>
  <rect height="586.25" opacity="0" width="586.5" x="0" y="0"/>
  <path d="M174.5 586.25L412 586.25C468.75 586.25 512.75 570.25 541.5 541.5C571 512.25 586.5 468.25 586.5 411.75L586.5 174.5C586.5 118 571.25 74.25 541.5 44.75C512.5 15.5 468.75 0 412 0L174.5 0C117.75 0 73.75 16 45 44.75C15.5 74 0 118 0 174.5L0 411.75C0 468.25 15.25 512 45 541.5C74 570.5 117.75 586.25 174.5 586.25ZM174.5 542C132 542 99.25 530.5 77.5 509C55.5 487.25 44.25 454.5 44.25 411.75L44.25 174.5C44.25 131.75 55.5 99 77.5 77.25C99 56 132 44.25 174.5 44.25L412 44.25C454.75 44.25 487.25 55.75 509 77.25C531 99 542.25 131.75 542.25 174.5L542.25 411.75C542.25 454.5 531 487.25 509 509C487.5 530.25 454.75 542 412 542Z" fill="white" fill-opacity="0.85"/>
  <path d="M316.5 416.75L316.5 168.5C316.5 154.5 306.75 144.75 293 144.75C279.75 144.75 270.5 154.5 270.5 168.5L270.5 416.75C270.5 430.5 279.75 440.25 293 440.25C306.75 440.25 316.5 430.75 316.5 416.75ZM169.25 315.5L417.75 315.5C431.5 315.5 441 306.25 441 293C441 279 431.5 269.5 417.75 269.5L169.25 269.5C155.25 269.5 145.75 279 145.75 293C145.75 306.25 155.5 315.5 169.25 315.5Z" fill="white" fill-opacity="0.85"/>
 </g>
</svg>
