<?xml version="1.0" encoding="UTF-8"?>
<!--Generator: Apple Native CoreSVG 341-->
<!DOCTYPE svg
PUBLIC "-//W3C//DTD SVG 1.1//EN"
       "http://www.w3.org/Graphics/SVG/1.1/DTD/svg11.dtd">
<svg version="1.1" xmlns="http://www.w3.org/2000/svg" xmlns:xlink="http://www.w3.org/1999/xlink" viewBox="0 0 775.25 775.75">
 <g>
  <rect height="775.75" opacity="0" width="775.25" x="0" y="0"/>
  <path d="M368 645.252L368 689.748C216.909 680.285 95.6147 559.205 85.7881 408L130.284 408C140.004 534.887 241.217 635.892 368 645.252ZM407.75 689.737L407.75 645.241C534.636 635.777 635.751 534.816 645.466 408L689.962 408C680.14 559.132 558.949 680.167 407.75 689.737ZM690.024 368.25L645.528 368.25C636.393 241.067 535.039 139.503 407.75 130.008L407.75 85.5127C559.355 95.1092 680.791 216.76 690.024 368.25ZM368 129.998C240.815 139.388 139.361 240.995 130.222 368.25L85.7262 368.25C94.9634 216.687 216.504 94.9909 368 85.5015Z" fill="white" fill-opacity="0.85"/>
  <path d="M387.75 257C399 257 407.75 248 407.75 237L407.75 20.5C407.75 9.25 399 0.5 387.75 0.5C376.5 0.5 368 9.25 368 20.5L368 237C368 248 376.5 257 387.75 257ZM20 408L236.5 408C247.75 408 256.75 399.25 256.75 388.25C256.75 376.75 247.75 368.25 236.5 368.25L20 368.25C9 368.25 0 376.75 0 388.25C0 399.25 9 408 20 408ZM387.75 775.75C399 775.75 407.75 766.75 407.75 755.75L407.75 539.25C407.75 528 399 519.25 387.75 519.25C376.5 519.25 368 528 368 539.25L368 755.75C368 766.75 376.5 775.75 387.75 775.75ZM538.75 408L755.25 408C766.5 408 775.25 399.25 775.25 388.25C775.25 376.75 766.5 368.25 755.25 368.25L538.75 368.25C527.75 368.25 518.75 376.75 518.75 388.25C518.75 399.25 527.75 408 538.75 408Z" fill="white" fill-opacity="0.85"/>
 </g>
</svg>
