<?xml version="1.0" encoding="UTF-8"?>
<!--Generator: Apple Native CoreSVG 341-->
<!DOCTYPE svg
PUBLIC "-//W3C//DTD SVG 1.1//EN"
       "http://www.w3.org/Graphics/SVG/1.1/DTD/svg11.dtd">
<svg version="1.1" xmlns="http://www.w3.org/2000/svg" xmlns:xlink="http://www.w3.org/1999/xlink" viewBox="0 0 505.813 506.313">
 <g>
  <rect height="506.313" opacity="0" width="505.813" x="0" y="0"/>
  <path d="M464.032 7.78156L7.03156 464.782C-2.21844 474.032-2.46844 489.782 7.03156 499.282C16.7816 508.532 32.2816 508.532 41.7816 499.282L498.532 42.2816C508.032 33.0316 508.282 17.2816 498.532 7.78156C489.032-1.46844 473.532-1.71844 464.032 7.78156ZM498.532 464.782L41.7816 7.78156C32.2816-1.46844 16.5316-1.71844 7.03156 7.78156C-2.21844 17.5316-2.21844 33.0316 7.03156 42.2816L464.032 499.282C473.282 508.532 489.282 508.782 498.532 499.282C508.032 489.532 508.032 474.032 498.532 464.782Z" fill="white" fill-opacity="0.85"/>
 </g>
</svg>
